solid csg.js
facet normal -1 0 0
outer loop
vertex 0 0 0
vertex 0 -47.99999999999999 83.13843876330611
vertex 0 -44.535898384862236 85.13843876330611
endloop
endfacet
facet normal -1 0 0
outer loop
vertex 0 0 0
vertex 0 -44.535898384862236 85.13843876330611
vertex 0 3.464101615137755 1.9999999999999998
endloop
endfacet
facet normal 1 0 0
outer loop
vertex 2 0 0
vertex 2 3.464101615137755 1.9999999999999998
vertex 2 -44.535898384862236 85.13843876330611
endloop
endfacet
facet normal 1 0 0
outer loop
vertex 2 0 0
vertex 2 -44.535898384862236 85.13843876330611
vertex 2 -47.99999999999999 83.13843876330611
endloop
endfacet
facet normal 0 -0.8660254037844387 -0.49999999999999994
outer loop
vertex 0 0 0
vertex 2 0 0
vertex 2 -47.99999999999999 83.13843876330611
endloop
endfacet
facet normal 0 -0.8660254037844387 -0.49999999999999994
outer loop
vertex 0 0 0
vertex 2 -47.99999999999999 83.13843876330611
vertex 0 -47.99999999999999 83.13843876330611
endloop
endfacet
facet normal 0 0.8660254037844387 0.5000000000000001
outer loop
vertex 0 3.464101615137755 1.9999999999999998
vertex 0 -44.535898384862236 85.13843876330611
vertex 2 -44.535898384862236 85.13843876330611
endloop
endfacet
facet normal 0 0.8660254037844387 0.5000000000000001
outer loop
vertex 0 3.464101615137755 1.9999999999999998
vertex 2 -44.535898384862236 85.13843876330611
vertex 2 3.464101615137755 1.9999999999999998
endloop
endfacet
facet normal 0 0.49999999999999994 -0.8660254037844387
outer loop
vertex 0 0 0
vertex 0 3.464101615137755 1.9999999999999998
vertex 2 3.464101615137755 1.9999999999999998
endloop
endfacet
facet normal 0 0.49999999999999994 -0.8660254037844387
outer loop
vertex 0 0 0
vertex 2 3.464101615137755 1.9999999999999998
vertex 2 0 0
endloop
endfacet
facet normal 0 -0.499999999999999 0.8660254037844393
outer loop
vertex 0 -47.99999999999999 83.13843876330611
vertex 2 -47.99999999999999 83.13843876330611
vertex 2 -44.535898384862236 85.13843876330611
endloop
endfacet
facet normal 0 -0.499999999999999 0.8660254037844393
outer loop
vertex 0 -47.99999999999999 83.13843876330611
vertex 2 -44.535898384862236 85.13843876330611
vertex 0 -44.535898384862236 85.13843876330611
endloop
endfacet
endsolid csg.js
